<svg width="640" height="320" viewBox="0 0 640 320" fill="none" xmlns="http://www.w3.org/2000/svg">
<rect width="640" height="320" fill="#E5E5E5"/>
<path d="M0 0H640V320H0V0Z" fill="#343A40"/>
<path d="M623.056 98C629.731 98 635.149 102.991 635.149 109.141C635.149 131.713 635.149 188.287 635.149 210.859C635.149 217.009 629.731 222 623.056 222C569.242 222 419.906 222 366.093 222C359.418 222 354 217.009 354 210.859C354 188.287 354 131.713 354 109.141C354 102.991 359.418 98 366.093 98C419.906 98 569.242 98 623.056 98Z" fill="#FFA31A"/>
<path d="M75.7578 204H63.5068L16.9785 132.779V204H4.72754V111.578H16.9785L63.6338 183.116V111.578H75.7578V204ZM149.645 161.28H109.591V194.034H156.119V204H97.4033V111.578H155.484V121.607H109.591V151.314H149.645V161.28ZM191.222 174.864L192.999 187.052L195.602 176.07L213.883 111.578H224.166L242.003 176.07L244.542 187.242L246.51 174.801L260.855 111.578H273.106L250.699 204H239.591L220.548 136.651L219.088 129.605L217.628 136.651L197.887 204H186.778L164.435 111.578H176.622L191.222 174.864ZM313.922 162.804C303.469 159.799 295.852 156.118 291.07 151.759C286.331 147.358 283.961 141.941 283.961 135.509C283.961 128.23 286.86 122.221 292.657 117.481C298.497 112.7 306.072 110.309 315.382 110.309C321.729 110.309 327.379 111.536 332.33 113.99C337.324 116.445 341.174 119.83 343.883 124.146C346.633 128.463 348.009 133.181 348.009 138.302H335.758C335.758 132.716 333.98 128.336 330.426 125.162C326.871 121.946 321.856 120.338 315.382 120.338C309.373 120.338 304.675 121.671 301.29 124.337C297.947 126.961 296.275 130.621 296.275 135.318C296.275 139.085 297.862 142.28 301.036 144.903C304.252 147.485 309.69 149.854 317.35 152.013C325.051 154.171 331.061 156.562 335.377 159.186C339.736 161.767 342.952 164.793 345.025 168.263C347.141 171.733 348.199 175.816 348.199 180.514C348.199 188.004 345.279 194.013 339.439 198.541C333.6 203.027 325.792 205.27 316.017 205.27C309.669 205.27 303.744 204.063 298.243 201.651C292.742 199.197 288.489 195.854 285.484 191.622C282.522 187.39 281.041 182.587 281.041 177.213H293.292C293.292 182.799 295.344 187.221 299.449 190.479C303.596 193.696 309.119 195.304 316.017 195.304C322.449 195.304 327.379 193.992 330.807 191.368C334.234 188.744 335.948 185.169 335.948 180.641C335.948 176.113 334.361 172.621 331.188 170.167C328.014 167.67 322.258 165.216 313.922 162.804Z" fill="white"/>
<path d="M438.111 178.477H403.561L395.801 200H384.586L416.078 117.531H425.594L457.143 200H445.984L438.111 178.477ZM406.846 169.527H434.883L420.836 130.955L406.846 169.527ZM479.119 167.715V200H468.244V117.531H498.66C507.685 117.531 514.746 119.835 519.844 124.441C524.979 129.048 527.547 135.146 527.547 142.736C527.547 150.742 525.036 156.915 520.014 161.258C515.029 165.562 507.874 167.715 498.547 167.715H479.119ZM479.119 158.822H498.66C504.475 158.822 508.931 157.463 512.027 154.744C515.124 151.988 516.672 148.023 516.672 142.85C516.672 137.941 515.124 134.014 512.027 131.068C508.931 128.123 504.683 126.594 499.283 126.48H479.119V158.822ZM552.299 167.715V200H541.424V117.531H571.84C580.865 117.531 587.926 119.835 593.023 124.441C598.159 129.048 600.727 135.146 600.727 142.736C600.727 150.742 598.215 156.915 593.193 161.258C588.209 165.562 581.053 167.715 571.727 167.715H552.299ZM552.299 158.822H571.84C577.655 158.822 582.111 157.463 585.207 154.744C588.303 151.988 589.852 148.023 589.852 142.85C589.852 137.941 588.303 134.014 585.207 131.068C582.111 128.123 577.863 126.594 572.463 126.48H552.299V158.822Z" fill="black"/>
</svg>
